<svg width="20" height="20" viewBox="0 0 20 20" fill="none" xmlns="http://www.w3.org/2000/svg">
<g clip-path="url(#clip0_133_1348)">
<path d="M11.9817 4.16163C11.6708 3.89246 11.1875 3.75746 10.5317 3.75746C10.2067 3.75746 9.88251 3.78746 9.55834 3.8458C9.23334 3.90413 8.96001 3.98163 8.73918 4.07913C8.6756 4.10057 8.61852 4.13785 8.57334 4.18746C8.54584 4.22496 8.53168 4.29246 8.53168 4.38913V4.6683C8.53168 4.7933 8.57668 4.85496 8.66668 4.85496C8.69678 4.85445 8.72661 4.84911 8.75501 4.83913L8.83251 4.81413C9.32573 4.66102 9.8386 4.58046 10.355 4.57496C10.7692 4.57496 11.0592 4.65163 11.2258 4.8033C11.3917 4.9558 11.4742 5.21746 11.4742 5.5908V6.27413C11.0474 6.16416 10.609 6.10514 10.1683 6.0983C9.56084 6.0983 9.07751 6.2483 8.71834 6.5483C8.36001 6.8483 8.18001 7.25163 8.18001 7.75496C8.18001 8.2258 8.32501 8.59913 8.61501 8.87996C8.90501 9.15913 9.29834 9.2983 9.79584 9.2983C10.0925 9.2983 10.3908 9.23996 10.6917 9.1233C10.9925 9.0058 11.2667 8.83996 11.515 8.6258L11.5675 8.96746C11.5883 9.0983 11.6642 9.16413 11.7958 9.16413H12.2408C12.3783 9.16413 12.4483 9.09496 12.4483 8.95663V5.4158C12.4483 4.84913 12.2925 4.4308 11.9817 4.16163ZM11.4742 7.99496C11.2467 8.16746 11.0075 8.2983 10.7592 8.3883C10.5308 8.47451 10.2891 8.5202 10.045 8.5233C9.77584 8.5233 9.56834 8.45246 9.42334 8.3108C9.27834 8.16913 9.20584 7.96746 9.20584 7.70496C9.20584 7.10413 9.59584 6.8033 10.3758 6.8033C10.5558 6.8033 10.74 6.8158 10.93 6.83996C11.12 6.86496 11.3017 6.89746 11.4742 6.9383V7.99496ZM7.31084 5.33413C7.2236 5.02422 7.07762 4.73396 6.88084 4.47913C6.69898 4.24804 6.46476 4.06351 6.19751 3.9408C5.91424 3.81334 5.60644 3.74962 5.29584 3.75413C4.98501 3.75413 4.68084 3.81246 4.38418 3.92996C4.07709 4.05391 3.79332 4.22918 3.54501 4.4483L3.49334 4.11663C3.47251 3.9783 3.39334 3.90913 3.25501 3.90913H2.79918C2.66084 3.90913 2.59168 3.9783 2.59168 4.11663V11.0883C2.59168 11.2266 2.66084 11.295 2.79918 11.295H3.41001C3.54834 11.295 3.61751 11.2258 3.61751 11.0883V8.66413C4.05391 9.06688 4.62875 9.28595 5.22251 9.2758C5.56084 9.2758 5.86834 9.2083 6.14418 9.07413C6.41827 8.94094 6.65893 8.74785 6.84834 8.50913C7.04251 8.26746 7.19251 7.97413 7.29834 7.6283C7.41019 7.25194 7.46469 6.86089 7.46001 6.4683C7.4656 6.08495 7.4159 5.70284 7.31084 5.33413ZM4.98501 8.44663C4.51501 8.44663 4.05918 8.2808 3.61834 7.94913V5.05913C4.05168 4.74246 4.51501 4.5833 5.00584 4.5833C5.94501 4.5833 6.41418 5.22913 6.41418 6.51996C6.41418 7.80496 5.93751 8.44663 4.98501 8.44663ZM15.8183 10.0825L18.0983 4.28163C18.1357 4.20304 18.1599 4.11887 18.17 4.03246C18.17 3.94996 18.1217 3.9083 18.025 3.9083H17.445C17.3342 3.9083 17.2592 3.9258 17.2167 3.9608C17.175 3.99496 17.1342 4.07163 17.0925 4.18913L15.6942 8.20746L14.2442 4.18913C14.2025 4.07163 14.1608 3.99496 14.1192 3.9608C14.0775 3.9258 14.0025 3.9083 13.8908 3.9083H13.2692C13.1725 3.9083 13.1242 3.94996 13.1242 4.0333C13.1242 4.0808 13.1492 4.16413 13.1967 4.28163L15.1967 9.21246L14.9992 9.7408C14.8825 10.0725 14.7508 10.3 14.6058 10.4241C14.4608 10.5491 14.2567 10.6108 13.995 10.6108C13.8775 10.6108 13.7842 10.6033 13.715 10.59C13.664 10.5786 13.6122 10.5716 13.56 10.5691C13.4567 10.5691 13.4042 10.635 13.4042 10.7658V11.035C13.4042 11.1316 13.4208 11.2025 13.4567 11.2475C13.4995 11.2977 13.5579 11.3323 13.6225 11.3458C13.7942 11.3933 13.9917 11.4183 14.2125 11.4183C14.6067 11.4183 14.9258 11.315 15.1708 11.1075C15.4167 10.9008 15.6317 10.5591 15.8183 10.0825ZM18.0775 13.7683C15.8883 15.385 12.7142 16.2433 9.98001 16.2433C6.14918 16.2433 2.69918 14.8275 0.0883444 12.47C-0.116656 12.285 0.0658444 12.0325 0.313344 12.1758C3.13001 13.815 6.61251 14.8016 10.21 14.8016C12.8038 14.7892 15.3696 14.2644 17.76 13.2575C18.13 13.0991 18.4392 13.5008 18.0775 13.7683ZM18.9892 12.7283C19.2692 13.0866 18.6775 14.565 18.4133 15.225C18.3333 15.425 18.505 15.505 18.6858 15.3541C19.8608 14.3708 20.1642 12.3125 19.9233 12.015C19.685 11.72 17.6317 11.4658 16.3783 12.3458C16.185 12.4816 16.2183 12.6683 16.4317 12.6425C17.1375 12.5583 18.7092 12.3691 18.9892 12.7283Z" fill="black"/>
</g>
<defs>
<clipPath id="clip0_133_1348">
<rect width="20" height="20" fill="white"/>
</clipPath>
</defs>
</svg>
