<svg width="23" height="21" viewBox="0 0 23 21" fill="none" xmlns="http://www.w3.org/2000/svg">
<g opacity="0.2">
<path d="M5.97812 13.3182C5.70291 13.2432 5.46001 13.0797 5.28687 12.853C5.11373 12.6263 5.01996 12.349 5.02002 12.0637V6.29692C5.01996 6.01167 5.11373 5.73431 5.28687 5.50761C5.46001 5.28091 5.70291 5.11745 5.97812 5.04242L15.8581 2.34752C16.0511 2.29492 16.2536 2.28755 16.4499 2.32599C16.6462 2.36444 16.8309 2.44765 16.9898 2.56916C17.1487 2.69067 17.2774 2.8472 17.3659 3.02657C17.4543 3.20594 17.5003 3.40331 17.5 3.60332V14.7599C17.4999 14.9597 17.4537 15.1568 17.365 15.3358C17.2763 15.5149 17.1476 15.6711 16.9888 15.7923C16.8299 15.9135 16.6453 15.9965 16.4492 16.0348C16.2532 16.0731 16.0509 16.0657 15.8581 16.0131L5.97812 13.3195V13.3182Z" fill="#09A172"/>
<path fill-rule="evenodd" clip-rule="evenodd" d="M7.62002 11.0705L14.9 13.0556V5.30502L7.62002 7.29012V11.0705ZM5.02002 12.0637C5.01996 12.349 5.11373 12.6263 5.28687 12.853C5.46001 13.0797 5.70291 13.2432 5.97812 13.3182L15.8581 16.0118C16.0509 16.0644 16.2532 16.0718 16.4492 16.0335C16.6453 15.9952 16.8299 15.9122 16.9888 15.791C17.1476 15.6698 17.2763 15.5136 17.365 15.3345C17.4537 15.1555 17.4999 14.9584 17.5 14.7586V3.60202C17.5001 3.40212 17.454 3.2049 17.3654 3.0257C17.2768 2.84649 17.1481 2.69013 16.9893 2.56877C16.8304 2.4474 16.6457 2.3643 16.4496 2.32593C16.2534 2.28756 16.051 2.29495 15.8581 2.34752L5.97812 5.04242C5.70291 5.11745 5.46001 5.28091 5.28687 5.50761C5.11373 5.73431 5.01996 6.01167 5.02002 6.29692V12.0637Z" fill="#09A172"/>
<path d="M7.12091 12.0405C7.12091 12.3853 6.98395 12.7159 6.74015 12.9597C6.49635 13.2035 6.16569 13.3405 5.82091 13.3405H2.23291C2.13417 13.3404 2.03649 13.3201 1.94592 13.2807C1.85536 13.2414 1.77384 13.1838 1.70641 13.1117C-0.36449 10.9017 -0.37359 7.44371 1.70901 5.24411C1.7759 5.17341 1.85653 5.11711 1.94594 5.07866C2.03536 5.04021 2.13168 5.02042 2.22901 5.02051H5.82091C6.16569 5.02051 6.49635 5.15747 6.74015 5.40127C6.98395 5.64507 7.12091 5.97573 7.12091 6.32051V12.0405Z" fill="#09A172"/>
<path fill-rule="evenodd" clip-rule="evenodd" d="M4.52091 10.7405V7.62051H3.15981C2.8904 8.09648 2.74924 8.63427 2.75015 9.1812C2.75107 9.72812 2.89402 10.2654 3.16501 10.7405H4.52091ZM5.82091 13.3405C6.16569 13.3405 6.49635 13.2035 6.74015 12.9597C6.98395 12.7159 7.12091 12.3853 7.12091 12.0405V6.32051C7.12091 5.97573 6.98395 5.64507 6.74015 5.40127C6.49635 5.15747 6.16569 5.02051 5.82091 5.02051H2.22901C2.13168 5.02042 2.03536 5.04021 1.94594 5.07866C1.85653 5.11711 1.7759 5.17341 1.70901 5.24411C-0.37359 7.44241 -0.36449 10.903 1.70641 13.1117C1.77384 13.1838 1.85536 13.2414 1.94592 13.2807C2.03649 13.3201 2.13417 13.3404 2.23291 13.3405H5.82091Z" fill="#09A172"/>
<path d="M3.07277 12.9583C3.21548 12.3984 3.54062 11.902 3.99685 11.5475C4.45307 11.193 5.01439 11.0005 5.59217 11.0005H6.35137C6.74763 11.0004 7.13867 11.091 7.49459 11.2652C7.85052 11.4394 8.16191 11.6926 8.405 12.0056C8.64808 12.3185 8.81642 12.6829 8.89714 13.0708C8.97787 13.4588 8.96885 13.8601 8.87077 14.244L7.87367 18.144C7.73071 18.7036 7.40547 19.1997 6.94927 19.554C6.49306 19.9083 5.93188 20.1006 5.35427 20.1005H2.92327C2.72521 20.1005 2.52977 20.0552 2.35187 19.9682C2.17396 19.8811 2.01831 19.7545 1.89678 19.5982C1.77525 19.4418 1.69106 19.2597 1.65065 19.0658C1.61023 18.8719 1.61465 18.6713 1.66357 18.4794L3.07277 12.9583Z" fill="#09A172"/>
<path fill-rule="evenodd" clip-rule="evenodd" d="M6.35137 13.6004H5.59217L4.59637 17.5004H5.35427L6.35137 13.6004ZM5.59217 11.0004C5.01439 11.0004 4.45307 11.1929 3.99685 11.5474C3.54062 11.9019 3.21548 12.3983 3.07277 12.9582L1.66357 18.4793C1.61462 18.6714 1.61022 18.872 1.65071 19.066C1.6912 19.26 1.7755 19.4422 1.89718 19.5986C2.01885 19.755 2.17468 19.8816 2.35274 19.9685C2.53081 20.0555 2.7264 20.1006 2.92457 20.1004H5.35557C5.93296 20.1002 6.49384 19.9078 6.94978 19.5535C7.40572 19.1993 7.73077 18.7033 7.87367 18.1439L8.87077 14.2439C8.96885 13.86 8.97787 13.4587 8.89714 13.0708C8.81641 12.6828 8.64808 12.3184 8.405 12.0055C8.16191 11.6925 7.85051 11.4393 7.49459 11.2651C7.13867 11.0909 6.74763 11.0004 6.35137 11.0004H5.59217ZM22.7418 3.77892C22.8365 3.92095 22.9024 4.08026 22.9356 4.24775C22.9688 4.41524 22.9687 4.58762 22.9352 4.75506C22.9018 4.9225 22.8357 5.08171 22.7407 5.2236C22.6457 5.36549 22.5237 5.48729 22.3817 5.58202L20.4317 6.88202C20.1448 7.07337 19.7937 7.14294 19.4555 7.0754C19.1174 7.00787 18.8199 6.80878 18.6286 6.52192C18.4372 6.23506 18.3677 5.88394 18.4352 5.54579C18.5027 5.20764 18.7018 4.91017 18.9887 4.71882L20.9387 3.41882C21.0807 3.32405 21.24 3.25819 21.4075 3.225C21.575 3.1918 21.7474 3.19193 21.9148 3.22537C22.0823 3.25881 22.2415 3.32491 22.3834 3.41989C22.5252 3.51486 22.647 3.63687 22.7418 3.77892ZM18.4102 9.18042C18.4102 8.83564 18.5471 8.50498 18.7909 8.26118C19.0347 8.01738 19.3654 7.88042 19.7102 7.88042H21.6602C22.005 7.88042 22.3356 8.01738 22.5794 8.26118C22.8232 8.50498 22.9602 8.83564 22.9602 9.18042C22.9602 9.5252 22.8232 9.85586 22.5794 10.0997C22.3356 10.3435 22.005 10.4804 21.6602 10.4804H19.7102C19.3654 10.4804 19.0347 10.3435 18.7909 10.0997C18.5471 9.85586 18.4102 9.5252 18.4102 9.18042ZM18.7144 11.6621C18.8241 11.5313 18.9586 11.4235 19.11 11.3446C19.2615 11.2658 19.427 11.2176 19.5971 11.2028C19.7672 11.1879 19.9385 11.2067 20.1014 11.2581C20.2642 11.3095 20.4153 11.3924 20.5461 11.5022L22.3401 13.0102C22.5947 13.2346 22.7515 13.5498 22.777 13.8883C22.8024 14.2268 22.6944 14.5618 22.476 14.8217C22.2577 15.0816 21.9464 15.2458 21.6086 15.2793C21.2708 15.3127 20.9333 15.2126 20.6683 15.0005L18.8743 13.4925C18.6105 13.2709 18.4455 12.9536 18.4156 12.6104C18.3856 12.2672 18.493 11.9261 18.7144 11.6621Z" fill="#09A172"/>
</g>
<path fill-rule="evenodd" clip-rule="evenodd" d="M6.32002 4.34673V10.1135L16.2 12.8084V1.65183L6.32002 4.34673ZM5.02002 10.1135C5.01996 10.3988 5.11373 10.6761 5.28687 10.9028C5.46001 11.1295 5.70291 11.293 5.97812 11.368L15.8581 14.0616C16.0509 14.1142 16.2532 14.1216 16.4492 14.0833C16.6453 14.045 16.8299 13.962 16.9888 13.8408C17.1476 13.7196 17.2763 13.5634 17.365 13.3843C17.4537 13.2053 17.4999 13.0082 17.5 12.8084V1.65183C17.5001 1.45193 17.454 1.25471 17.3654 1.0755C17.2768 0.896299 17.1481 0.739937 16.9893 0.618572C16.8304 0.497207 16.6457 0.414109 16.4496 0.375737C16.2534 0.337365 16.051 0.344754 15.8581 0.397328L5.97812 3.09223C5.70291 3.16725 5.46001 3.33071 5.28687 3.55741C5.11373 3.78412 5.01996 4.06147 5.02002 4.34673V10.1135Z" fill="#09A172"/>
<path fill-rule="evenodd" clip-rule="evenodd" d="M2.49291 10.0903H5.15011V4.37031H2.48901C1.81702 5.17203 1.44906 6.18492 1.44977 7.23102C1.45048 8.27712 1.81983 9.28951 2.49291 10.0903ZM5.15011 11.3903C5.49489 11.3903 5.82555 11.2533 6.06935 11.0096C6.31315 10.7658 6.45011 10.4351 6.45011 10.0903V4.37031C6.45011 4.02553 6.31315 3.69487 6.06935 3.45107C5.82555 3.20728 5.49489 3.07031 5.15011 3.07031H2.22901C2.13168 3.07023 2.03536 3.09002 1.94594 3.12846C1.85653 3.16691 1.7759 3.22321 1.70901 3.29391C-0.37359 5.49221 -0.36449 8.95281 1.70641 11.1615C1.77384 11.2336 1.85536 11.2912 1.94592 11.3305C2.03649 11.3699 2.13417 11.3902 2.23291 11.3903H5.15011Z" fill="#09A172"/>
<path fill-rule="evenodd" clip-rule="evenodd" d="M7.44984 12.131L4.18684 11.767L2.91544 16.85H6.34224L7.44984 12.131ZM4.32984 10.4761C4.01729 10.4411 3.70266 10.5207 3.44427 10.6999C3.18587 10.8792 3.00122 11.1461 2.92454 11.4511L1.65444 16.5341C1.60643 16.7258 1.60274 16.9259 1.64366 17.1192C1.68458 17.3125 1.76904 17.494 1.89061 17.6498C2.01218 17.8056 2.16767 17.9316 2.34525 18.0183C2.52283 18.1049 2.71784 18.15 2.91544 18.15H6.34224C6.63557 18.1501 6.92031 18.051 7.15019 17.8688C7.38006 17.6866 7.54157 17.432 7.60844 17.1464L8.71604 12.4274C8.75818 12.2483 8.76182 12.0623 8.7267 11.8816C8.69159 11.701 8.61853 11.5299 8.51236 11.3796C8.40619 11.2293 8.26932 11.1033 8.11081 11.0098C7.95229 10.9164 7.77575 10.8576 7.59284 10.8375L4.32984 10.4761ZM22.2009 2.18991C22.2964 2.33336 22.3309 2.50883 22.2971 2.67776C22.2632 2.84669 22.1636 2.99525 22.0202 3.09081L20.0702 4.39081C19.9993 4.44111 19.919 4.47666 19.8341 4.49536C19.7491 4.51406 19.6613 4.51553 19.5758 4.49968C19.4903 4.48383 19.4088 4.45099 19.3363 4.40309C19.2637 4.35519 19.2014 4.29321 19.1532 4.22083C19.105 4.14844 19.0719 4.06712 19.0557 3.98168C19.0395 3.89624 19.0406 3.80841 19.0589 3.72341C19.0773 3.6384 19.1125 3.55795 19.1625 3.4868C19.2125 3.41565 19.2763 3.35526 19.35 3.30921L21.3 2.00921C21.4435 1.91378 21.619 1.8792 21.7879 1.91309C21.9568 1.94697 22.1054 2.04654 22.2009 2.18991ZM19.0601 7.23001C19.0601 7.05761 19.1286 6.89228 19.2505 6.77039C19.3724 6.64849 19.5378 6.58001 19.7101 6.58001H21.6601C21.8325 6.58001 21.9979 6.64849 22.1198 6.77039C22.2417 6.89228 22.3101 7.05761 22.3101 7.23001C22.3101 7.4024 22.2417 7.56773 22.1198 7.68962C21.9979 7.81152 21.8325 7.88001 21.6601 7.88001H19.7101C19.5378 7.88001 19.3724 7.81152 19.2505 7.68962C19.1286 7.56773 19.0601 7.4024 19.0601 7.23001ZM19.2122 10.129C19.2673 10.0637 19.3346 10.0098 19.4105 9.97051C19.4864 9.93122 19.5692 9.90727 19.6543 9.90002C19.7394 9.89278 19.8252 9.90239 19.9066 9.92829C19.988 9.9542 20.0635 9.9959 20.1287 10.051L21.9227 11.5577C22.0475 11.6706 22.1237 11.8275 22.1352 11.9954C22.1466 12.1633 22.0925 12.3291 21.9843 12.458C21.876 12.5868 21.7219 12.6686 21.5546 12.6862C21.3872 12.7037 21.2195 12.6557 21.0868 12.5522L19.2928 11.0442C19.1609 10.9335 19.0783 10.7749 19.0631 10.6033C19.048 10.4317 19.1017 10.2611 19.2122 10.129Z" fill="#09A172"/>
</svg>
