<svg width="24" height="28" viewBox="0 0 24 28" fill="none" xmlns="http://www.w3.org/2000/svg">
<path d="M12.0912 8.0275C10.9962 8.0275 9.30123 6.7825 7.51623 6.8275C5.16123 6.8575 3.00123 8.1925 1.78623 10.3075C-0.658766 14.5525 1.15623 20.8225 3.54123 24.2725C4.71123 25.9525 6.09123 27.8425 7.92123 27.7825C9.67623 27.7075 10.3362 26.6425 12.4662 26.6425C14.5812 26.6425 15.1812 27.7825 17.0412 27.7375C18.9312 27.7075 20.1312 26.0275 21.2862 24.3325C22.6212 22.3825 23.1762 20.4925 23.2062 20.3875C23.1612 20.3725 19.5312 18.9775 19.4862 14.7775C19.4562 11.2675 22.3512 9.5875 22.4862 9.5125C20.8362 7.0975 18.3012 6.8275 17.4162 6.7675C15.1062 6.5875 13.1712 8.0275 12.0912 8.0275ZM15.9912 4.4875C16.9662 3.3175 17.6112 1.6825 17.4312 0.0625C16.0362 0.1225 14.3562 0.9925 13.3512 2.1625C12.4512 3.1975 11.6712 4.8625 11.8812 6.4525C13.4262 6.5725 15.0162 5.6575 15.9912 4.4875Z" fill="black"/>
</svg>
