<svg width="14" height="18" viewBox="0 0 14 18" fill="none" xmlns="http://www.w3.org/2000/svg">
<path d="M11.5977 9.46289C11.5898 8.13086 12.1934 7.12695 13.4121 6.38672C12.7305 5.41016 11.6992 4.87305 10.3398 4.76953C9.05273 4.66797 7.64453 5.51953 7.12891 5.51953C6.58398 5.51953 5.33789 4.80469 4.35742 4.80469C2.33398 4.83594 0.183594 6.41797 0.183594 9.63672C0.183594 10.5879 0.357422 11.5703 0.705078 12.582C1.16992 13.9141 2.8457 17.1777 4.59375 17.125C5.50781 17.1035 6.1543 16.4766 7.34375 16.4766C8.49805 16.4766 9.0957 17.125 10.1152 17.125C11.8789 17.0996 13.3945 14.1328 13.8359 12.7969C11.4707 11.6816 11.5977 9.53125 11.5977 9.46289ZM11.3906 14.6777C11.1113 15.0664 10.8301 15.373 10.5723 15.5703C10.3672 15.7266 10.209 15.793 10.1035 15.7969C9.92773 15.7949 9.75781 15.752 9.42578 15.625C9.40234 15.6152 9.37695 15.6055 9.34375 15.5938L9.25781 15.5605C8.91797 15.4297 8.71484 15.3594 8.45508 15.291C8.0918 15.1973 7.73047 15.1465 7.34375 15.1465C6.94922 15.1465 6.57812 15.1953 6.20898 15.2871C5.9375 15.3555 5.70898 15.4316 5.375 15.5566C5.36133 15.5625 5.2168 15.6172 5.17578 15.6328C5.10742 15.6582 5.05469 15.6777 5.00586 15.6953C4.80273 15.7656 4.67383 15.7949 4.55859 15.7969C4.54492 15.7969 4.5332 15.7949 4.52344 15.793C4.50195 15.7891 4.47461 15.7813 4.44336 15.7676C4.35547 15.7324 4.25 15.668 4.13086 15.5762C3.85742 15.3633 3.55664 15.0293 3.25 14.6016C2.71289 13.8477 2.20508 12.8477 1.96094 12.1465C1.66016 11.2715 1.51172 10.4336 1.51172 9.63477C1.51172 8.45898 1.85937 7.56445 2.45703 6.95703C2.9707 6.4375 3.66211 6.14648 4.36719 6.13086C4.48242 6.13281 4.65039 6.16016 4.86328 6.21875C5.03125 6.26367 5.21484 6.32422 5.46289 6.41211C5.53711 6.43945 5.79297 6.53125 5.82422 6.54297C5.97461 6.59766 6.08789 6.63672 6.19922 6.67188C6.55469 6.78516 6.83008 6.84766 7.12891 6.84766C7.43164 6.84766 7.69141 6.7832 8.06055 6.65625C8.19922 6.60938 8.70312 6.42188 8.79297 6.39063C9.29297 6.21289 9.66211 6.11719 9.98047 6.09375C10.0742 6.08594 10.1582 6.08594 10.2383 6.0918C10.6816 6.12695 11.0605 6.21484 11.3828 6.36133C10.6484 7.20898 10.2695 8.24609 10.2715 9.45508C10.2656 9.74219 10.2891 10.0742 10.3711 10.4668C10.4961 11.0625 10.7344 11.6523 11.1113 12.2051C11.3984 12.625 11.7539 13.0039 12.1797 13.334C11.9551 13.7969 11.6797 14.2754 11.3906 14.6777ZM9.54492 3.50586C10.5352 2.33008 10.4453 1.25977 10.416 0.875C9.54102 0.925781 8.5293 1.4707 7.95312 2.14063C7.31836 2.85938 6.94531 3.74805 7.02539 4.75C7.9707 4.82227 8.83398 4.33594 9.54492 3.50586Z" fill="black"/>
</svg>
