<svg width="20" height="20" viewBox="0 0 20 20" fill="none" xmlns="http://www.w3.org/2000/svg">
<g clip-path="url(#clip0_1644_3296)">
<path d="M10.1655 9.83046L8.99049 11.0055C8.34049 11.6555 8.34049 12.7138 8.99049 13.3638C9.64049 14.0138 10.6988 14.0138 11.3488 13.3638L13.1988 11.5138C13.8231 10.8877 14.1737 10.0396 14.1737 9.15546C14.1737 8.27131 13.8231 7.42322 13.1988 6.79713C12.5727 6.17284 11.7247 5.82227 10.8405 5.82227C9.95634 5.82227 9.10825 6.17284 8.48216 6.79713L6.46549 8.8138C6.19997 9.0791 5.98933 9.39412 5.84561 9.74087C5.7019 10.0876 5.62793 10.4593 5.62793 10.8346C5.62793 11.21 5.7019 11.5816 5.84561 11.9284C5.98933 12.2751 6.19997 12.5902 6.46549 12.8555" stroke="#09A172" stroke-width="1.5" stroke-linecap="round" stroke-linejoin="round"/>
<path d="M3.33317 4.99935C2.2915 6.39102 1.6665 8.12435 1.6665 9.99935C1.6665 14.5993 5.39984 18.3327 9.99984 18.3327C14.5998 18.3327 18.3332 14.5993 18.3332 9.99935C18.3332 5.39935 14.5998 1.66602 9.99984 1.66602C8.80817 1.66602 7.6665 1.91602 6.6415 2.37435" stroke="#09A172" stroke-width="1.5" stroke-linecap="round" stroke-linejoin="round"/>
</g>
<defs>
<clipPath id="clip0_1644_3296">
<rect width="20" height="20" fill="white"/>
</clipPath>
</defs>
</svg>
