<svg width="23" height="22" viewBox="0 0 23 22" fill="none" xmlns="http://www.w3.org/2000/svg">
<path d="M11.5 21.75C5.57 21.75 0.75 16.93 0.75 11C0.75 5.07 5.57 0.25 11.5 0.25C17.43 0.25 22.25 5.07 22.25 11C22.25 16.93 17.43 21.75 11.5 21.75ZM11.5 1.75C6.4 1.75 2.25 5.9 2.25 11C2.25 16.1 6.4 20.25 11.5 20.25C16.6 20.25 20.75 16.1 20.75 11C20.75 5.9 16.6 1.75 11.5 1.75Z" fill="#09A172"/>
<path d="M11.5021 14.6294C10.1821 14.6294 9.10205 13.5494 9.10205 12.2294V9.75938C9.10205 8.43938 10.1821 7.35938 11.5021 7.35938C12.8221 7.35938 13.9021 8.43938 13.9021 9.75938V12.2294C13.9021 12.5445 13.84 12.8566 13.7194 13.1478C13.5988 13.439 13.422 13.7036 13.1991 13.9264C12.9762 14.1493 12.7117 14.3261 12.4205 14.4467C12.1293 14.5673 11.8172 14.6294 11.5021 14.6294ZM11.5021 8.86938C11.0121 8.86938 10.6021 9.26938 10.6021 9.76938V12.2394C10.6021 12.7394 11.0021 13.1394 11.5021 13.1394C12.0021 13.1394 12.4021 12.7394 12.4021 12.2394V9.76938C12.4021 9.26938 11.9921 8.86938 11.5021 8.86938Z" fill="#09A172"/>
<path d="M11.5 17.8197C8.33 17.8197 5.75 15.2397 5.75 12.0697V9.92969C5.75 6.75969 8.33 4.17969 11.5 4.17969C14.46 4.17969 16.92 6.39969 17.22 9.33969C17.2396 9.53721 17.18 9.73442 17.0544 9.88813C16.9288 10.0418 16.7475 10.1395 16.55 10.1597C16.4521 10.1702 16.353 10.1611 16.2586 10.133C16.1642 10.1049 16.0763 10.0584 16 9.99606C15.9237 9.93373 15.8605 9.85688 15.8142 9.76995C15.7679 9.68302 15.7392 9.58776 15.73 9.48969C15.6242 8.44265 15.1324 7.47248 14.3504 6.76818C13.5685 6.06387 12.5524 5.67584 11.5 5.67969C10.3736 5.68233 9.29417 6.13094 8.49771 6.9274C7.70126 7.72386 7.25264 8.80333 7.25 9.92969V12.0697C7.25264 13.196 7.70126 14.2755 8.49771 15.072C9.29417 15.8684 10.3736 16.317 11.5 16.3197C13.7 16.3197 15.56 14.5997 15.74 12.4097C15.7559 12.2108 15.8502 12.0263 16.0021 11.8969C16.154 11.7675 16.3511 11.7038 16.55 11.7197C16.7489 11.7356 16.9334 11.8299 17.0628 11.9818C17.1922 12.1337 17.2559 12.3308 17.24 12.5297C17 15.4997 14.48 17.8197 11.5 17.8197Z" fill="#09A172"/>
</svg>
