<svg width="20" height="20" viewBox="0 0 20 20" fill="none" xmlns="http://www.w3.org/2000/svg">
<g clip-path="url(#clip0_153_1005)">
<path d="M18.3334 13.3333C18.3334 15.6904 18.3334 16.8689 17.6012 17.6011C16.8689 18.3333 15.6904 18.3333 13.3334 18.3333L6.66675 18.3333C4.30973 18.3333 3.13121 18.3333 2.39898 17.6011C1.66675 16.8689 1.66675 15.6904 1.66675 13.3333L1.66675 10C1.66675 7.64298 1.66675 6.46447 2.39898 5.73223C3.13121 5 4.30972 5 6.66675 5L13.3334 5C15.6904 5 16.8689 5 17.6012 5.73223C18.3334 6.46447 18.3334 7.64298 18.3334 10V13.3333Z" stroke="#1A1A1A" stroke-width="1.5"/>
<path d="M7.5 1.66683L10 4.5835L12.5 1.66683" stroke="#1A1A1A" stroke-width="1.5" stroke-linecap="round"/>
<path d="M13.3333 5V18.3333" stroke="#1A1A1A" stroke-width="1.5" stroke-linecap="round"/>
<path d="M16.6667 13.3332C16.6667 12.8729 16.2936 12.4998 15.8333 12.4998C15.3731 12.4998 15 12.8729 15 13.3332C15 13.7934 15.3731 14.1665 15.8333 14.1665C16.2936 14.1665 16.6667 13.7934 16.6667 13.3332Z" fill="#1A1A1A"/>
<path d="M16.6667 10.0002C16.6667 9.53993 16.2936 9.16683 15.8333 9.16683C15.3731 9.16683 15 9.53993 15 10.0002C15 10.4604 15.3731 10.8335 15.8333 10.8335C16.2936 10.8335 16.6667 10.4604 16.6667 10.0002Z" fill="#1A1A1A"/>
</g>
<defs>
<clipPath id="clip0_153_1005">
<rect width="20" height="20" fill="white"/>
</clipPath>
</defs>
</svg>
