<svg width="24" height="25" viewBox="0 0 24 25" fill="none" xmlns="http://www.w3.org/2000/svg">
<circle cx="12" cy="13.5" r="3" stroke="#09A172" stroke-width="1.5"/>
<path d="M10.0001 20.4999H14.0001C16.809 20.4999 18.2135 20.4999 19.2224 19.8258C19.6591 19.5339 20.0341 19.1589 20.326 18.7222C21.0001 17.7133 21.0001 16.3088 21.0001 13.4999C21.0001 10.691 21 9.28673 20.3258 8.27783C20.034 7.84107 19.659 7.46607 19.2222 7.17423C18.2133 6.50011 16.8089 6.50011 14 6.50011H9.99995C7.19103 6.50011 5.78656 6.50011 4.77767 7.17423C4.34091 7.46607 3.96591 7.84107 3.67407 8.27783C3.0001 9.2865 3.0001 10.6903 3.0001 13.498L3.0001 13.4999C3.0001 16.3088 3.0001 17.7133 3.67422 18.7222C3.96605 19.1589 4.34106 19.5339 4.77782 19.8258C5.78671 20.4999 7.19117 20.4999 10.0001 20.4999Z" stroke="#09A172" stroke-width="1.5"/>
<path d="M18 10.5H17.5" stroke="#09A172" stroke-width="1.5" stroke-linecap="round"/>
<path d="M14.5 4H9.5" stroke="#09A172" stroke-width="1.5" stroke-linecap="round"/>
</svg>
