<svg width="27" height="24" viewBox="0 0 27 24" fill="none" xmlns="http://www.w3.org/2000/svg">
<path d="M2.875 12C2.875 8.22876 2.875 6.34315 4.1198 5.17157C5.36459 4 7.36806 4 11.375 4H15.625C19.6319 4 21.6354 4 22.8802 5.17157C24.125 6.34315 24.125 8.22876 24.125 12C24.125 15.7712 24.125 17.6569 22.8802 18.8284C21.6354 20 19.6319 20 15.625 20H11.375C7.36806 20 5.36459 20 4.1198 18.8284C2.875 17.6569 2.875 15.7712 2.875 12Z" stroke="#09A172" stroke-width="1.5"/>
<path d="M13.5001 10V14M11.6594 11L15.34 13M15.3398 11L11.6592 13" stroke="#09A172" stroke-width="1.5" stroke-linecap="round"/>
<path d="M7.90296 10V14M6.06226 11L9.74287 13M9.74262 11L6.06201 13" stroke="#09A172" stroke-width="1.5" stroke-linecap="round"/>
<path d="M19.0975 10V14M17.2568 11L20.9374 13M20.9372 11L17.2566 13" stroke="#09A172" stroke-width="1.5" stroke-linecap="round"/>
</svg>
