<svg width="20" height="20" viewBox="0 0 20 20" fill="none" xmlns="http://www.w3.org/2000/svg">
<g clip-path="url(#clip0_160_2146)">
<path d="M7.67713 8.47768L9.35634 7.14046C10.4418 6.27608 10.9845 5.84389 11.3256 6.05735C11.6667 6.27081 11.4896 6.9318 11.1354 8.25376L11.102 8.3784C10.9742 8.8552 10.9103 9.09361 11.0226 9.28397L11.0286 9.29387C11.145 9.48195 11.3932 9.54844 11.8894 9.68141C12.7824 9.9207 13.229 10.0403 13.3073 10.3516C13.3086 10.3568 13.3098 10.3619 13.3109 10.3671C13.3797 10.6803 13.0274 10.9608 12.3229 11.5219L10.6437 12.8591C9.55827 13.7234 9.01554 14.1556 8.67443 13.9422C8.33332 13.7287 8.51044 13.0677 8.86468 11.7458L8.89807 11.6212C9.02584 11.1444 9.08972 10.9059 8.97744 10.7156L8.97146 10.7057C8.85504 10.5176 8.60691 10.4511 8.11065 10.3181C7.21763 10.0789 6.77111 9.95921 6.69278 9.64794C6.69148 9.64278 6.69026 9.63761 6.68912 9.63242C6.62036 9.31922 6.97262 9.03871 7.67713 8.47768Z" stroke="#09A172" stroke-width="1.5"/>
<path d="M1.66675 9.99984C1.66675 5.39746 5.39771 1.6665 10.0001 1.6665C14.6025 1.6665 18.3334 5.39746 18.3334 9.99984C18.3334 14.6022 14.6025 18.3332 10.0001 18.3332C5.39771 18.3332 1.66675 14.6022 1.66675 9.99984Z" stroke="#09A172" stroke-width="1.5"/>
</g>
<defs>
<clipPath id="clip0_160_2146">
<rect width="20" height="20" fill="white"/>
</clipPath>
</defs>
</svg>
