<svg width="20" height="20" viewBox="0 0 20 20" fill="none" xmlns="http://www.w3.org/2000/svg">
<g clip-path="url(#clip0_153_837)">
<path d="M7.67713 8.47816L9.35634 7.14095C10.4418 6.27657 10.9845 5.84438 11.3256 6.05784C11.6667 6.2713 11.4896 6.93228 11.1354 8.25424L11.102 8.37889C10.9742 8.85569 10.9103 9.09409 11.0226 9.28445L11.0286 9.29436C11.145 9.48244 11.3932 9.54893 11.8894 9.6819C12.7824 9.92119 13.229 10.0408 13.3073 10.3521C13.3086 10.3573 13.3098 10.3624 13.3109 10.3676C13.3797 10.6808 13.0274 10.9613 12.3229 11.5224L10.6437 12.8596C9.55827 13.7239 9.01554 14.1561 8.67443 13.9427C8.33332 13.7292 8.51044 13.0682 8.86468 11.7462L8.89807 11.6216C9.02584 11.1448 9.08972 10.9064 8.97744 10.7161L8.97146 10.7062C8.85504 10.5181 8.60691 10.4516 8.11065 10.3186C7.21763 10.0793 6.77111 9.9597 6.69278 9.64842C6.69148 9.64327 6.69026 9.6381 6.68912 9.63291C6.62036 9.31971 6.97262 9.0392 7.67713 8.47816Z" stroke="#1C274C" stroke-width="1.5"/>
<path d="M1.66675 9.99935C1.66675 5.39698 5.39771 1.66602 10.0001 1.66602C14.6025 1.66602 18.3334 5.39698 18.3334 9.99935C18.3334 14.6017 14.6025 18.3327 10.0001 18.3327C5.39771 18.3327 1.66675 14.6017 1.66675 9.99935Z" stroke="#1C274C" stroke-width="1.5"/>
</g>
<defs>
<clipPath id="clip0_153_837">
<rect width="20" height="20" fill="white"/>
</clipPath>
</defs>
</svg>
