<svg width="22" height="20" viewBox="0 0 22 20" fill="none" xmlns="http://www.w3.org/2000/svg">
<path d="M11.0019 14.3319C8.61187 14.3319 6.67188 12.3919 6.67188 10.0019C6.67188 7.61187 8.61187 5.67188 11.0019 5.67188C13.3919 5.67188 15.3319 7.61187 15.3319 10.0019C15.3319 12.3919 13.3919 14.3319 11.0019 14.3319ZM11.0019 7.17188C9.44187 7.17188 8.17188 8.44187 8.17188 10.0019C8.17188 11.5619 9.44187 12.8319 11.0019 12.8319C12.5619 12.8319 13.8319 11.5619 13.8319 10.0019C13.8319 8.44187 12.5619 7.17188 11.0019 7.17188Z" fill="white"/>
<path d="M10.9979 19.02C7.23788 19.02 3.68788 16.82 1.24788 13C0.187881 11.35 0.187881 8.65998 1.24788 6.99998C3.69788 3.17998 7.24788 0.97998 10.9979 0.97998C14.7479 0.97998 18.2979 3.17998 20.7379 6.99998C21.7979 8.64998 21.7979 11.34 20.7379 13C18.2979 16.82 14.7479 19.02 10.9979 19.02ZM10.9979 2.47998C7.76788 2.47998 4.67788 4.41998 2.51788 7.80998C1.76788 8.97998 1.76788 11.02 2.51788 12.19C4.67788 15.58 7.76788 17.52 10.9979 17.52C14.2279 17.52 17.3179 15.58 19.4779 12.19C20.2279 11.02 20.2279 8.97998 19.4779 7.80998C17.3179 4.41998 14.2279 2.47998 10.9979 2.47998Z" fill="white"/>
</svg>
