<svg width="25" height="21" viewBox="0 0 25 21" fill="none" xmlns="http://www.w3.org/2000/svg">
<path d="M0.399902 5.01101C0.399902 3.72735 0.777447 2.61988 1.58288 1.81445L2.96721 3.19879C1.43186 4.73414 2.76586 9.49122 7.14539 13.8707C11.5249 18.2503 16.3072 19.6094 17.8425 18.0741L19.2269 19.4584C16.6344 22.0509 10.7195 20.2135 5.78622 15.2551C2.33797 11.832 0.399902 7.93069 0.399902 5.01101Z" fill="#333333"/>
<path d="M9.10866 20.6412C7.82501 20.6412 6.71754 20.2636 5.91211 19.4582L7.29644 18.0739C8.8318 19.6092 13.5889 18.2752 17.9936 13.8705C22.3983 9.46583 23.7071 4.70875 22.1717 3.1734L23.5561 1.78906C26.1486 4.38154 24.3112 10.2964 19.3527 15.2297C15.9297 18.7031 12.0535 20.6412 9.10866 20.6412Z" fill="#4F4F4F"/>
<path d="M19.8308 13.291C19.0002 10.8747 17.2887 8.28226 14.9983 6.01698C10.065 1.05855 4.15011 -0.77884 1.55763 1.81364C1.38144 1.98983 1.53246 2.46805 1.91 2.8456C2.28755 3.22314 2.7406 3.37416 2.94196 3.19798C4.47731 1.66262 9.23439 2.99662 13.6391 7.40132C15.703 9.46524 17.2635 11.7808 17.9935 13.9203C18.6479 15.808 18.5724 17.3182 17.8173 18.0733C17.6411 18.2495 17.7921 18.7277 18.1696 19.1052C18.5472 19.4828 19.0002 19.6338 19.2016 19.4576C20.5104 18.1488 20.737 15.9339 19.8308 13.291Z" fill="#BDBDBD"/>
<path d="M23.556 1.8389C22.222 0.504902 20.0322 0.278374 17.3894 1.20965C14.9731 2.04025 12.3806 3.7518 10.1153 6.01707C5.18208 10.9503 3.31953 16.8652 5.91201 19.4577C6.08819 19.6339 6.56642 19.4829 6.94396 19.1053C7.32151 18.7278 7.47253 18.2747 7.29634 18.0734C5.76099 16.538 7.09498 11.7809 11.4997 7.37624C13.5636 5.31232 15.8792 3.7518 18.0186 3.02188C19.9064 2.36746 21.4166 2.44297 22.1716 3.19806C22.3478 3.37425 22.8261 3.22323 23.2036 2.84569C23.5812 2.46814 23.7322 2.01509 23.556 1.8389Z" fill="#828282"/>
</svg>
