<svg width="20" height="20" viewBox="0 0 20 20" fill="none" xmlns="http://www.w3.org/2000/svg">
<g clip-path="url(#clip0_133_1411)">
<path d="M3.3335 8.33268C3.3335 5.19018 3.3335 3.61852 4.31016 2.64268C5.286 1.66602 6.85766 1.66602 10.0002 1.66602C13.1427 1.66602 14.7143 1.66602 15.6902 2.64268C16.6668 3.61852 16.6668 5.19018 16.6668 8.33268V9.99935C16.6668 13.1418 16.6668 14.7135 15.6902 15.6893C14.7143 16.666 13.1427 16.666 10.0002 16.666C6.85766 16.666 5.286 16.666 4.31016 15.6893C3.3335 14.7135 3.3335 13.1418 3.3335 9.99935V8.33268Z" stroke="black" stroke-width="1.5"/>
<path d="M12.9167 13.3333H14.1667M5.83341 13.3333H7.08341M5.00008 16.25V17.5C5.00008 17.721 5.08788 17.933 5.24416 18.0893C5.40044 18.2455 5.6124 18.3333 5.83341 18.3333H7.08341C7.30443 18.3333 7.51639 18.2455 7.67267 18.0893C7.82895 17.933 7.91675 17.721 7.91675 17.5V16.6667M15.0001 16.25V17.5C15.0001 17.721 14.9123 17.933 14.756 18.0893C14.5997 18.2455 14.3878 18.3333 14.1667 18.3333H12.9167C12.6957 18.3333 12.4838 18.2455 12.3275 18.0893C12.1712 17.933 12.0834 17.721 12.0834 17.5V16.6667M16.6667 7.5H17.5001C17.7211 7.5 17.9331 7.5878 18.0893 7.74408C18.2456 7.90036 18.3334 8.11232 18.3334 8.33333V9.16667C18.3334 9.29604 18.3033 9.42363 18.2454 9.53934C18.1876 9.65506 18.1036 9.75571 18.0001 9.83333L16.6667 10.8333H3.33341L2.00008 9.83333C1.89658 9.75571 1.81258 9.65506 1.75473 9.53934C1.69687 9.42363 1.66675 9.29604 1.66675 9.16667V8.33333C1.66675 8.11232 1.75455 7.90036 1.91083 7.74408C2.06711 7.5878 2.27907 7.5 2.50008 7.5H3.33341" stroke="black" stroke-width="1.5" stroke-linecap="round" stroke-linejoin="round"/>
<path d="M16.25 4.16602H3.75" stroke="black" stroke-width="1.5" stroke-linecap="round"/>
</g>
<defs>
<clipPath id="clip0_133_1411">
<rect width="20" height="20" fill="white"/>
</clipPath>
</defs>
</svg>
