<svg width="16" height="16" viewBox="0 0 16 16" fill="none" xmlns="http://www.w3.org/2000/svg">
<path d="M11.7035 7.51314H9.07413L9.61119 8.52005H11.7035V7.51314ZM11.793 12.5698C11.7632 12.2969 11.7408 12.0277 11.7259 11.7621C11.711 11.4965 11.7035 11.2457 11.7035 11.0097V10.036H10.428L11.793 12.5698ZM6.94825 8.52005L6.41119 7.51314H4.30769V8.52005H6.94825ZM4.22937 3.45228C4.25921 3.71047 4.27786 3.96496 4.28531 4.21577C4.30023 4.4592 4.30769 4.68787 4.30769 4.9018V5.99723H5.59441L4.22937 3.45228ZM14.1762 7.51314V8.52005H16V9.3278C16 9.50484 15.9254 9.66713 15.7762 9.81466C15.6345 9.96219 15.448 10.036 15.2168 10.036H14.1762V16H11.7483C11.517 16 11.3193 15.9631 11.1552 15.8894C10.9986 15.8082 10.8457 15.6754 10.6965 15.491L7.76503 10.036H4.30769V16H1.82378V10.036H0V8.52005H1.82378V7.51314H0V6.70539C0 6.52835 0.0745921 6.36607 0.223776 6.21853C0.37296 6.071 0.55944 5.99723 0.783217 5.99723H1.82378V0H4.27413C4.40093 0 4.50909 0.00737658 4.5986 0.0221297C4.69557 0.0295067 4.77762 0.0516369 4.84476 0.0885202C4.91935 0.118027 4.99021 0.165976 5.05734 0.232365C5.12448 0.291379 5.19907 0.372522 5.28112 0.475795L8.25734 5.99723H11.7035V0H14.1762V5.99723H16V7.51314H14.1762Z" fill="white"/>
</svg>
