<svg width="21" height="22" viewBox="0 0 21 22" fill="none" xmlns="http://www.w3.org/2000/svg">
<path d="M15.5169 10.0168H12.2142L12.8888 11.3231H15.5169V10.0168ZM15.6293 16.5768C15.5918 16.2228 15.5637 15.8735 15.545 15.529C15.5262 15.1845 15.5169 14.8591 15.5169 14.5528V13.2896H13.9147L15.6293 16.5768ZM9.54403 11.3231L8.86945 10.0168H6.22734V11.3231H9.54403ZM6.12897 4.74866C6.16644 5.0836 6.18987 5.41375 6.19924 5.73912C6.21797 6.05492 6.22734 6.35159 6.22734 6.62911V8.05021H7.84352L6.12897 4.74866ZM18.6227 10.0168V11.3231H20.9135V12.3709C20.9135 12.6006 20.8198 12.8112 20.6324 13.0026C20.4544 13.1939 20.2202 13.2896 19.9298 13.2896H18.6227V21.0268H15.5731C15.2826 21.0268 15.0344 20.9789 14.8282 20.8832C14.6315 20.778 14.4394 20.6057 14.252 20.3665L10.57 13.2896H6.22734V21.0268H3.10741V13.2896H0.81665V11.3231H3.10741V10.0168H0.81665V8.96891C0.81665 8.73923 0.910342 8.5287 1.09773 8.33731C1.28511 8.14591 1.51934 8.05021 1.80041 8.05021H3.10741V0.27002H6.18518C6.34446 0.27002 6.48031 0.279589 6.59274 0.298728C6.71454 0.308299 6.8176 0.337008 6.90192 0.384857C6.99562 0.423136 7.08462 0.485339 7.16894 0.571467C7.25327 0.648025 7.34696 0.753291 7.45002 0.887267L11.1883 8.05021H15.5169V0.27002H18.6227V8.05021H20.9135V10.0168H18.6227Z" fill="#09A172"/>
</svg>
