<svg width="16" height="17" viewBox="0 0 16 17" fill="none" xmlns="http://www.w3.org/2000/svg">
<path d="M8 5.38867V8.49978L9.94444 10.4442" stroke="white" stroke-width="1.5" stroke-linecap="round" stroke-linejoin="round"/>
<path d="M3.02544 3.52544L2.49511 2.99511L2.49511 2.99511L3.02544 3.52544ZM2.04048 4.5104L1.29049 4.51417C1.29256 4.92544 1.62544 5.25833 2.03671 5.2604L2.04048 4.5104ZM4.01659 5.27034C4.43079 5.27243 4.76826 4.93833 4.77034 4.52412C4.77243 4.10992 4.43833 3.77245 4.02412 3.77036L4.01659 5.27034ZM2.78052 2.52676C2.77844 2.11255 2.44097 1.77846 2.02676 1.78054C1.61255 1.78262 1.27846 2.12009 1.28054 2.5343L2.78052 2.52676ZM1.80804 7.57757C1.86429 7.16719 1.57721 6.78892 1.16684 6.73267C0.75646 6.67642 0.378185 6.9635 0.321935 7.37387L1.80804 7.57757ZM13.4551 3.04486C10.4199 0.00963092 5.51292 -0.0226918 2.49511 2.99511L3.55577 4.05577C5.97777 1.63378 9.93497 1.646 12.3945 4.10552L13.4551 3.04486ZM2.54486 13.9551C5.58009 16.9904 10.4871 17.0227 13.5049 14.0049L12.4442 12.9442C10.0222 15.3662 6.06503 15.354 3.60552 12.8945L2.54486 13.9551ZM13.5049 14.0049C16.5227 10.9871 16.4904 6.08009 13.4551 3.04486L12.3945 4.10552C14.854 6.56504 14.8662 10.5222 12.4442 12.9442L13.5049 14.0049ZM2.49511 2.99511L1.51015 3.98007L2.57081 5.04073L3.55577 4.05577L2.49511 2.99511ZM2.03671 5.2604L4.01659 5.27034L4.02412 3.77036L2.04425 3.76041L2.03671 5.2604ZM2.79047 4.50664L2.78052 2.52676L1.28054 2.5343L1.29049 4.51417L2.79047 4.50664ZM0.321935 7.37387C0.00288075 9.70156 0.745944 12.1562 2.54486 13.9551L3.60552 12.8945C2.14988 11.4388 1.55044 9.45688 1.80804 7.57757L0.321935 7.37387Z" fill="white"/>
</svg>
