<svg width="24" height="24" viewBox="0 0 24 24" fill="none" xmlns="http://www.w3.org/2000/svg">
<g clip-path="url(#clip0_320_3371)">
<path d="M12 5.25C13.2426 5.25 14.25 4.24264 14.25 3C14.25 1.75736 13.2426 0.75 12 0.75C10.7574 0.75 9.75 1.75736 9.75 3C9.75 4.24264 10.7574 5.25 12 5.25Z" stroke="#09A172" stroke-width="2" stroke-miterlimit="10" stroke-linecap="square"/>
<path d="M3.23193 20.4375C4.47457 20.4375 5.48193 19.4301 5.48193 18.1875C5.48193 16.9449 4.47457 15.9375 3.23193 15.9375C1.98929 15.9375 0.981934 16.9449 0.981934 18.1875C0.981934 19.4301 1.98929 20.4375 3.23193 20.4375Z" stroke="#09A172" stroke-width="2" stroke-miterlimit="10" stroke-linecap="square"/>
<path d="M20.7686 20.4375C22.0112 20.4375 23.0186 19.4301 23.0186 18.1875C23.0186 16.9449 22.0112 15.9375 20.7686 15.9375C19.5259 15.9375 18.5186 16.9449 18.5186 18.1875C18.5186 19.4301 19.5259 20.4375 20.7686 20.4375Z" stroke="#09A172" stroke-width="2" stroke-miterlimit="10" stroke-linecap="square"/>
<path d="M6.93821 4.37109C4.9487 5.51805 3.40868 7.30784 2.57136 9.44619C1.73404 11.5845 1.64926 13.9442 2.33096 16.1371" stroke="#09A172" stroke-width="2" stroke-miterlimit="10" stroke-linecap="square"/>
<path d="M19.4325 19.9844C17.8797 21.6765 15.7958 22.7879 13.5256 23.1348C11.2553 23.4817 8.9346 23.0434 6.94727 21.8924" stroke="#09A172" stroke-width="2" stroke-miterlimit="10" stroke-linecap="square"/>
<path d="M22.1251 13.1242C22.1239 10.8264 21.3411 8.59728 19.9054 6.80321C18.4696 5.00914 16.4663 3.7568 14.2246 3.25195" stroke="#09A172" stroke-width="2" stroke-miterlimit="10" stroke-linecap="square"/>
</g>
<defs>
<clipPath id="clip0_320_3371">
<rect width="24" height="24" fill="white"/>
</clipPath>
</defs>
</svg>
