<svg width="33" height="33" viewBox="0 0 33 33" fill="none" xmlns="http://www.w3.org/2000/svg">
<path d="M15.3613 9.81208C15.8679 8.90318 16.1213 8.44873 16.5 8.44873C16.8787 8.44873 17.1321 8.90318 17.6387 9.81208L17.7698 10.0472C17.9138 10.3055 17.9858 10.4346 18.098 10.5199C18.2103 10.6051 18.3501 10.6367 18.6296 10.6999L18.8842 10.7575C19.8681 10.9802 20.36 11.0915 20.477 11.4678C20.5941 11.8442 20.2587 12.2364 19.588 13.0207L19.4144 13.2236C19.2238 13.4465 19.1285 13.5579 19.0857 13.6958C19.0428 13.8337 19.0572 13.9824 19.086 14.2798L19.1122 14.5505C19.2136 15.597 19.2644 16.1202 18.9579 16.3528C18.6515 16.5854 18.1909 16.3733 17.2697 15.9492L17.0314 15.8395C16.7696 15.7189 16.6387 15.6587 16.5 15.6587C16.3613 15.6587 16.2304 15.7189 15.9686 15.8395L15.7303 15.9492C14.8091 16.3733 14.3485 16.5854 14.0421 16.3528C13.7356 16.1202 13.7864 15.597 13.8878 14.5505L13.914 14.2798C13.9428 13.9824 13.9572 13.8337 13.9143 13.6958C13.8715 13.5579 13.7762 13.4465 13.5856 13.2236L13.412 13.0207C12.7413 12.2364 12.4059 11.8442 12.523 11.4678C12.64 11.0915 13.1319 10.9802 14.1158 10.7575L14.3704 10.6999C14.6499 10.6367 14.7897 10.6051 14.902 10.5199C15.0142 10.4346 15.0862 10.3055 15.2302 10.0472L15.3613 9.81208Z" stroke="#FFA600" stroke-width="1.5"/>
<path d="M25.8332 12.4486C25.8332 17.6032 21.6545 21.7819 16.4998 21.7819C11.3452 21.7819 7.1665 17.6032 7.1665 12.4486C7.1665 7.29391 11.3452 3.11523 16.4998 3.11523C21.6545 3.11523 25.8332 7.29391 25.8332 12.4486Z" stroke="#FFA600" stroke-width="1.5"/>
<path d="M16.4998 21.8725L11.4712 27.0792C10.7511 27.8248 10.391 28.1976 10.0861 28.3267C9.39119 28.6206 8.6204 28.369 8.25487 27.7289C8.09446 27.448 8.04448 26.9414 7.94451 25.928C7.88806 25.3559 7.85984 25.0698 7.77417 24.8302C7.58239 24.2938 7.17938 23.8765 6.66131 23.6779C6.4299 23.5892 6.15361 23.56 5.60102 23.5016C4.62233 23.398 4.13298 23.3463 3.86168 23.1802C3.24346 22.8017 3.00047 22.0036 3.28441 21.2842C3.40901 20.9684 3.76909 20.5956 4.48925 19.85L7.77417 16.4487" stroke="#FFA600" stroke-width="1.5"/>
<path d="M16.5002 21.8725L21.5288 27.0792C22.2489 27.8248 22.609 28.1976 22.9139 28.3267C23.6088 28.6206 24.3796 28.369 24.7451 27.7289C24.9055 27.448 24.9555 26.9414 25.0555 25.928C25.1119 25.3559 25.1402 25.0698 25.2258 24.8302C25.4176 24.2938 25.8206 23.8765 26.3387 23.6779C26.5701 23.5892 26.8464 23.56 27.399 23.5016C28.3777 23.398 28.867 23.3463 29.1383 23.1802C29.7565 22.8017 29.9995 22.0036 29.7156 21.2842C29.591 20.9684 29.2309 20.5956 28.5108 19.85L25.2258 16.4487" stroke="#FFA600" stroke-width="1.5"/>
</svg>
