<svg width="22" height="23" viewBox="0 0 22 23" fill="none" xmlns="http://www.w3.org/2000/svg">
<path d="M10.3691 20.4482C11.6167 20.4482 12.852 20.2025 14.0046 19.7251C15.1572 19.2477 16.2045 18.5479 17.0867 17.6658C17.9688 16.7836 18.6686 15.7363 19.146 14.5837C19.6234 13.4311 19.8691 12.1958 19.8691 10.9482C19.8691 9.70068 19.6234 8.46534 19.146 7.31275C18.6686 6.16016 17.9688 5.11288 17.0867 4.23073C16.2045 3.34857 15.1572 2.64881 14.0046 2.17139C12.852 1.69397 11.6167 1.44824 10.3691 1.44824C7.84958 1.44824 5.43322 2.44913 3.65163 4.23073C1.87003 6.01232 0.869141 8.42869 0.869141 10.9482C0.869141 13.4678 1.87003 15.8842 3.65163 17.6658C5.43322 19.4474 7.84958 20.4482 10.3691 20.4482Z" stroke="#212121" stroke-width="1.5" stroke-linecap="round" stroke-linejoin="round"/>
<path d="M20.8691 21.4482L18.8691 19.4482" stroke="#212121" stroke-width="1.5" stroke-linecap="round" stroke-linejoin="round"/>
</svg>
