<svg width="24" height="24" viewBox="0 0 24 24" fill="none" xmlns="http://www.w3.org/2000/svg">
<path opacity="0.4" d="M9.50978 4.22867L18.0698 8.50867C21.9098 10.4287 21.9098 13.5687 18.0698 15.4887L9.50978 19.7687C3.74978 22.6487 1.39978 20.2887 4.27978 14.5387L5.14978 12.8087C5.39978 12.2987 5.39978 11.7087 5.14978 11.1987L4.27978 9.45867C1.39978 3.70867 3.75978 1.34867 9.50978 4.22867Z" fill="#09A172"/>
<path d="M14.8399 12.75H9.43994C9.02994 12.75 8.68994 12.41 8.68994 12C8.68994 11.59 9.02994 11.25 9.43994 11.25H14.8399C15.2499 11.25 15.5899 11.59 15.5899 12C15.5899 12.41 15.2499 12.75 14.8399 12.75Z" fill="#09A172"/>
</svg>
