<svg width="20" height="20" viewBox="0 0 20 20" fill="none" xmlns="http://www.w3.org/2000/svg">
<path d="M2.29175 8.16602V16.8743C2.29175 17.0954 2.37955 17.3073 2.53583 17.4636C2.69211 17.6199 2.90407 17.7077 3.12508 17.7077H16.8751C17.0961 17.7077 17.3081 17.6199 17.4643 17.4636C17.6206 17.3073 17.7084 17.0954 17.7084 16.8743V3.12435C17.7084 2.90334 17.6206 2.69137 17.4643 2.53509C17.3081 2.37881 17.0961 2.29102 16.8751 2.29102H3.12508C2.90407 2.29102 2.69211 2.37881 2.53583 2.53509C2.37955 2.69137 2.29175 2.90334 2.29175 3.12435V8.16602Z" stroke="black" stroke-linecap="round" stroke-linejoin="round"/>
<path d="M10.7434 12.2033V10.4825C10.7434 10.2059 10.8533 9.94063 11.0489 9.74505C11.2445 9.54946 11.5098 9.43958 11.7864 9.43958M7.65845 8.03125V12.2033M7.65886 11.3171L9.54761 9.43792M8.26011 10.7192L9.7447 12.1971" stroke="black" stroke-linecap="round" stroke-linejoin="round"/>
<path d="M12.7317 8.47461C12.9043 8.47461 13.0442 8.3347 13.0442 8.16211C13.0442 7.98952 12.9043 7.84961 12.7317 7.84961C12.5591 7.84961 12.4192 7.98952 12.4192 8.16211C12.4192 8.3347 12.5591 8.47461 12.7317 8.47461Z" fill="black"/>
<path d="M12.7316 9.43905V12.2032M4.04075 11.7461C4.1592 11.902 4.31499 12.0256 4.49375 12.1055C4.67252 12.1854 4.86851 12.219 5.06367 12.2032H5.68159C5.81842 12.2031 5.95388 12.176 6.08025 12.1236C6.20661 12.0711 6.3214 11.9942 6.41806 11.8974C6.51472 11.8005 6.59134 11.6856 6.64357 11.5591C6.69579 11.4326 6.72258 11.2971 6.72242 11.1603C6.72258 11.0235 6.69579 10.888 6.64357 10.7615C6.59134 10.635 6.51472 10.5201 6.41806 10.4232C6.3214 10.3264 6.20661 10.2495 6.08025 10.197C5.95388 10.1446 5.81842 10.1175 5.68159 10.1174H4.99909C4.86222 10.1173 4.72672 10.0902 4.60033 10.0377C4.47394 9.98519 4.35913 9.9083 4.26247 9.8114C4.16581 9.71451 4.08919 9.59952 4.03699 9.473C3.98479 9.34648 3.95803 9.21091 3.95825 9.07405C3.95809 8.93722 3.98488 8.8017 4.03711 8.67523C4.08933 8.54876 4.16596 8.43382 4.26261 8.33697C4.35927 8.24012 4.47406 8.16326 4.60042 8.11078C4.72679 8.05831 4.86226 8.03124 4.99909 8.03113H5.61659C5.81175 8.01537 6.00774 8.04897 6.1865 8.12885C6.36527 8.20873 6.52105 8.33231 6.6395 8.48822M13.8137 8.03113V11.682C13.8138 11.8202 13.8688 11.9528 13.9666 12.0506C14.0644 12.1483 14.1971 12.2032 14.3353 12.2032H14.4916M15.3637 8.03113V11.682C15.3638 11.8202 15.4188 11.9528 15.5166 12.0506C15.6144 12.1483 15.7471 12.2032 15.8853 12.2032H16.0416" stroke="black" stroke-linecap="round" stroke-linejoin="round"/>
</svg>
