<svg width="100" height="101" viewBox="0 0 100 101" fill="none" xmlns="http://www.w3.org/2000/svg">
<path opacity="0.5" d="M100 50.4487C100 78.0637 77.615 100.449 50 100.449C22.385 100.449 0 78.0637 0 50.4487C0 22.8337 22.385 0.44873 50 0.44873C77.615 0.44873 100 22.8337 100 50.4487Z" fill="#09A172"/>
<path d="M70.1498 35.2989C70.852 36.002 71.2465 36.9551 71.2465 37.9488C71.2465 38.9426 70.852 39.8957 70.1498 40.5988L45.1498 65.5988C44.4467 66.3011 43.4935 66.6955 42.4998 66.6955C41.506 66.6955 40.5529 66.3011 39.8498 65.5988L29.8498 55.5988C29.4814 55.2555 29.1858 54.8415 28.9809 54.3815C28.7759 53.9215 28.6657 53.425 28.6568 52.9215C28.6479 52.4179 28.7406 51.9178 28.9292 51.4509C29.1178 50.9839 29.3985 50.5598 29.7546 50.2037C30.1107 49.8476 30.5349 49.5668 31.0018 49.3782C31.4687 49.1896 31.9689 49.097 32.4724 49.1059C32.9759 49.1148 33.4725 49.225 33.9325 49.4299C34.3925 49.6349 34.8065 49.9304 35.1498 50.2989L42.4998 57.6488L53.6748 46.4689L64.8498 35.2989C65.5529 34.5966 66.506 34.2021 67.4998 34.2021C68.4935 34.2021 69.4467 34.5966 70.1498 35.2989Z" fill="#09A172"/>
</svg>
