<svg width="390" height="175" viewBox="0 0 390 175" fill="none" xmlns="http://www.w3.org/2000/svg">
<path fill-rule="evenodd" clip-rule="evenodd" d="M0 -378H390V-207.608V-58V91.6082C348.838 118.733 296.271 135 239 135C107.004 135 0 48.591 0 -58V-378ZM215.469 165.085C207.387 159.344 208.098 147.788 221.265 148.026C222.494 148.048 224.479 148.193 227.083 148.383C239.801 149.31 267.29 151.315 293.663 145.383C323.161 138.747 353.389 126.208 371.945 115.669C371.945 115.669 345.885 141.069 325.913 152.529C323.23 154.069 320.807 155.496 318.554 156.822C303.557 165.653 296.056 170.07 269.228 174.009C238.368 178.541 215.469 165.085 215.469 165.085Z" fill="#FFA600"/>
</svg>
