<svg width="14" height="14" viewBox="0 0 14 14" fill="none" xmlns="http://www.w3.org/2000/svg">
<path d="M9.7935 0.333984H4.20683C1.78016 0.333984 0.333496 1.78065 0.333496 4.20732V9.78732C0.333496 12.2207 1.78016 13.6673 4.20683 13.6673H9.78683C12.2135 13.6673 13.6602 12.2207 13.6602 9.79398V4.20732C13.6668 1.78065 12.2202 0.333984 9.7935 0.333984ZM9.24016 8.53398C9.4335 8.72732 9.4335 9.04732 9.24016 9.24065C9.14016 9.34065 9.0135 9.38732 8.88683 9.38732C8.76016 9.38732 8.6335 9.34065 8.5335 9.24065L7.00016 7.70732L5.46683 9.24065C5.36683 9.34065 5.24016 9.38732 5.1135 9.38732C4.98683 9.38732 4.86016 9.34065 4.76016 9.24065C4.66718 9.14656 4.61503 9.0196 4.61503 8.88732C4.61503 8.75503 4.66718 8.62808 4.76016 8.53398L6.2935 7.00065L4.76016 5.46732C4.66718 5.37323 4.61503 5.24627 4.61503 5.11398C4.61503 4.9817 4.66718 4.85474 4.76016 4.76065C4.9535 4.56732 5.2735 4.56732 5.46683 4.76065L7.00016 6.29398L8.5335 4.76065C8.72683 4.56732 9.04683 4.56732 9.24016 4.76065C9.4335 4.95398 9.4335 5.27398 9.24016 5.46732L7.70683 7.00065L9.24016 8.53398Z" fill="#FB0000"/>
</svg>
